<svg xmlns="http://www.w3.org/2000/svg" version="1.1" viewBox="249.72 135.66 954.31 132.25">

<path fill="#fefffe" d="   M 309.20 222.57   A 1.21 1.21 0.0 0 0 311.07 222.53   C 315.69 216.52 317.31 208.14 319.12 200.97   Q 325.24 176.68 331.45 152.42   Q 333.61 143.98 337.53 138.07   Q 338.47 136.65 340.76 136.50   Q 351.25 135.82 361.75 135.94   C 369.36 136.02 372.52 138.88 370.20 146.42   Q 355.55 194.10 340.65 241.71   Q 338.56 248.40 336.34 255.06   C 333.45 263.73 330.63 265.31 321.00 265.32   Q 308.37 265.33 295.73 265.22   Q 289.02 265.17 286.42 259.30   Q 282.41 250.26 279.58 240.79   C 269.03 205.50 258.25 172.35 250.53 147.51   C 249.71 144.87 249.09 141.47 250.84 139.10   C 253.74 135.18 262.92 135.60 267.90 135.75   C 274.10 135.93 283.05 134.88 285.92 142.01   Q 288.41 148.19 292.14 163.49   Q 298.23 188.53 304.63 213.50   Q 305.99 218.82 309.20 222.57   Z"/>
<rect fill="#fefffe" x="623.48" y="135.91" width="36.26" height="129.30" rx="9.08"/>
<rect fill="#fefffe" x="-18.19" y="-64.62" transform="translate(809.99,200.56) rotate(-0.1)" width="36.38" height="129.24" rx="9.42"/>
<path fill="#fefffe" d="   M 896.27 235.59   A 3.13 0.45 21.6 0 0 897.74 235.94   Q 914.48 237.28 931.49 236.89   C 936.57 236.78 939.61 238.84 940.35 244.06   C 941.33 250.95 942.50 264.96 931.75 265.04   Q 899.13 265.31 866.50 265.23   C 854.13 265.19 854.06 259.09 854.08 249.00   Q 854.19 200.69 854.14 152.37   C 854.14 146.64 852.99 140.20 859.46 137.44   Q 862.91 135.97 865.50 135.89   C 871.91 135.70 888.10 134.77 889.68 140.75   Q 890.00 141.95 890.01 145.25   Q 890.20 181.75 890.00 218.25   C 889.97 225.09 889.92 233.55 896.27 235.59   Z"/>
<path fill="#fefffe" d="   M 425.71 171.42   C 425.04 178.51 425.02 187.74 435.00 187.64   Q 441.90 187.57 452.40 188.36   Q 458.53 188.81 460.12 194.48   C 462.00 201.22 462.40 217.02 451.50 216.76   C 445.27 216.61 439.22 217.03 433.00 217.20   C 422.61 217.48 422.61 235.48 433.78 236.22   Q 450.24 237.33 470.24 236.83   Q 478.37 236.63 478.96 244.74   C 479.32 249.63 479.95 258.82 477.13 262.41   C 474.71 265.47 468.80 265.12 465.24 265.13   Q 433.00 265.22 400.75 264.99   C 396.26 264.96 389.50 264.32 389.52 258.00   Q 389.75 202.33 389.75 146.65   C 389.75 138.58 393.18 136.03 401.00 136.02   Q 435.25 135.98 469.50 136.10   Q 478.62 136.14 479.26 145.21   C 479.79 152.65 480.03 164.72 469.25 164.41   Q 452.13 163.92 435.01 164.54   C 430.82 164.70 426.15 166.70 425.71 171.42   Z"/>
<path fill="#fefffe" d="   M 549.38 225.65   C 545.70 219.77 534.59 225.69 534.80 232.00   C 535.08 240.58 535.82 250.60 534.21 258.50   C 532.80 265.43 527.81 265.04 521.24 265.22   C 515.81 265.37 506.81 266.21 502.03 263.68   C 498.30 261.71 498.81 257.59 498.42 254.09   Q 498.12 251.53 498.11 248.39   Q 497.80 181.32 498.15 149.75   C 498.21 144.64 499.33 136.20 506.74 136.11   Q 526.16 135.87 545.55 136.12   C 568.06 136.41 595.98 142.17 602.00 167.90   C 603.00 172.19 603.88 175.34 603.22 179.25   C 601.55 189.05 600.19 197.91 592.66 205.16   Q 588.38 209.28 584.20 213.51   C 579.19 218.59 580.99 222.53 584.63 227.84   Q 586.65 230.79 590.06 231.85   Q 596.21 233.76 602.28 235.89   Q 608.12 237.94 608.70 244.26   Q 609.45 252.39 608.86 259.51   C 607.65 274.18 586.32 265.77 579.12 262.88   C 568.88 258.79 559.92 248.93 555.92 239.07   Q 552.50 230.64 549.38 225.65   Z   M 553.85 164.06   C 548.41 161.50 538.09 159.82 535.47 166.58   Q 534.74 168.45 534.82 173.01   Q 535.00 182.69 535.16 192.37   C 535.22 195.55 539.75 199.09 542.90 199.23   C 552.30 199.62 561.52 194.26 564.27 185.10   C 566.92 176.29 561.95 167.87 553.85 164.06   Z"/>
<path fill="#fefffe" d="   M 726.12 188.61   A 3.27 3.26 64.9 0 0 728.05 189.31   Q 737.13 189.62 746.50 190.21   C 750.57 190.47 755.29 191.76 755.29 197.00   Q 755.29 200.20 755.14 209.12   C 755.06 213.59 753.25 217.85 748.26 218.28   Q 739.58 219.04 730.88 218.79   C 725.01 218.63 721.89 223.22 722.11 228.75   Q 722.67 243.28 721.94 256.00   Q 721.70 260.16 719.10 263.53   A 1.60 1.54 9.2 0 1 718.32 264.07   Q 715.15 265.04 712.00 265.14   Q 701.77 265.46 695.50 265.20   C 688.76 264.91 685.98 261.66 685.98 255.01   Q 685.98 199.63 685.92 144.25   C 685.92 143.08 686.46 141.15 687.33 140.10   Q 690.78 135.94 697.25 135.95   Q 730.39 136.02 763.52 136.01   Q 767.68 136.01 769.38 136.82   C 774.84 139.40 774.19 150.61 773.92 156.01   Q 773.53 164.12 765.49 164.13   Q 741.64 164.15 735.25 164.24   C 729.88 164.31 722.74 165.16 722.19 172.35   C 721.75 178.01 721.17 184.72 726.12 188.61   Z"/>
<path fill="#fefffe" d="   M 993.29 209.25   Q 991.69 210.08 991.35 212.49   C 989.20 227.70 990.76 243.20 989.86 258.51   C 989.35 267.24 972.19 265.44 966.75 265.07   Q 957.91 264.46 957.92 255.51   Q 957.98 199.75 958.07 144.00   C 958.08 139.38 962.98 136.30 967.15 136.18   Q 976.21 135.93 992.25 136.08   C 999.14 136.15 1001.07 141.45 1003.28 148.24   Q 1007.86 162.30 1012.30 176.41   C 1013.99 181.79 1016.16 190.37 1019.05 197.19   C 1020.11 199.69 1022.31 201.89 1025.16 200.66   Q 1026.85 199.93 1027.89 196.80   C 1033.08 181.20 1037.19 167.11 1042.72 149.76   C 1044.19 145.17 1045.70 139.04 1050.06 137.02   Q 1051.80 136.21 1056.04 136.08   Q 1065.92 135.79 1075.79 135.98   C 1081.00 136.08 1085.47 135.96 1087.52 140.47   Q 1089.02 143.77 1089.02 150.00   Q 1089.00 202.63 1089.03 255.25   C 1089.03 262.58 1083.78 264.68 1077.16 265.20   C 1072.60 265.56 1063.29 265.91 1059.57 263.54   C 1057.36 262.14 1056.74 258.92 1056.69 256.50   C 1056.42 242.49 1057.22 228.19 1055.87 214.25   Q 1055.55 210.98 1053.72 208.33   A 1.27 1.24 77.8 0 0 1052.94 207.81   Q 1051.21 207.42 1050.43 209.23   Q 1044.28 223.39 1039.84 238.20   Q 1038.74 241.89 1036.44 244.95   C 1032.77 249.84 1021.73 249.22 1016.51 248.40   C 1010.70 247.49 1008.26 243.47 1006.50 238.51   Q 1002.80 228.02 999.14 217.52   Q 997.67 213.30 994.93 209.63   A 1.31 1.31 0.0 0 0 993.29 209.25   Z"/>
<path fill="#fefffe" d="   M 1186.50 166.81   C 1184.96 166.68 1183.40 166.68 1181.86 166.22   C 1176.09 164.51 1169.23 164.88 1166.56 158.24   C 1165.95 156.71 1165.91 154.82 1165.62 153.11   A 1.98 1.97 -0.6 0 0 1163.96 151.49   C 1152.10 149.76 1136.05 150.91 1127.68 160.69   C 1125.70 163.02 1125.31 165.46 1124.78 168.74   C 1123.48 176.78 1127.93 186.69 1137.00 187.65   C 1138.26 187.78 1140.21 189.11 1141.83 189.48   Q 1145.07 190.21 1148.31 190.95   C 1151.98 191.78 1156.55 191.97 1160.67 192.97   Q 1163.93 193.77 1166.40 194.17   Q 1177.06 195.90 1186.79 200.75   C 1207.05 210.87 1209.31 237.03 1194.32 252.76   Q 1183.12 264.51 1166.47 266.88   Q 1161.52 267.59 1150.50 267.44   C 1139.19 267.30 1126.70 262.50 1118.12 254.15   C 1114.20 250.34 1107.23 243.97 1105.58 238.81   Q 1104.99 236.98 1106.90 236.79   Q 1107.83 236.70 1109.33 237.94   C 1119.66 246.54 1135.90 251.50 1149.10 252.50   Q 1158.83 253.23 1166.15 251.92   Q 1169.96 251.24 1176.51 246.98   C 1185.87 240.91 1188.35 231.87 1183.09 221.95   C 1179.39 214.95 1166.04 211.92 1158.98 211.21   C 1156.12 210.92 1153.79 209.66 1151.05 209.51   C 1145.97 209.23 1142.66 208.20 1138.64 207.37   C 1130.74 205.72 1124.37 203.00 1117.92 198.08   C 1110.95 192.76 1107.98 186.63 1106.37 178.51   C 1102.91 160.93 1115.14 145.94 1130.76 139.76   C 1143.11 134.87 1156.40 135.55 1169.25 136.28   C 1172.32 136.45 1175.03 137.77 1177.69 138.18   C 1181.47 138.77 1183.86 139.11 1187.13 142.36   Q 1194.92 150.11 1190.22 160.25   Q 1189.60 161.58 1190.03 165.36   Q 1190.09 165.84 1190.38 166.23   C 1191.98 168.33 1195.09 174.06 1197.56 174.51   Q 1200.23 174.99 1202.76 175.96   Q 1203.95 176.41 1203.71 177.47   A 0.76 0.74 -87.0 0 1 1203.09 178.04   L 1198.42 178.66   A 0.81 0.80 13.1 0 0 1197.87 179.00   Q 1197.23 179.91 1196.94 180.98   Q 1196.59 182.26 1195.30 182.59   L 1194.80 182.71   A 0.74 0.73 3.5 0 1 1193.93 181.73   Q 1195.45 177.89 1193.74 176.00   Q 1190.38 172.28 1188.41 168.13   A 2.33 2.31 -10.2 0 0 1186.50 166.81   Z"/>

</svg>